<svg width="30" height="32" viewBox="0 0 30 32" fill="none" xmlns="http://www.w3.org/2000/svg">
<path d="M17.9214 20.1594C18.6154 17.9133 18.998 14.8005 19.2775 12.4842C17.9829 10.7714 15.035 15.7144 12.1341 17.075C10.366 17.9043 7.71351 17.075 8.01136 14.2183C8.80447 6.61133 21.5978 3.03697 23.8326 12.3853M17.9214 20.1594C17.2555 22.3142 16.1714 24.1607 14.2323 25.1695C10.272 27.2297 7.24628 22.7721 11.262 21.0448C13.206 20.2085 15.5549 20.1704 17.9214 20.1594ZM17.9214 20.1594C21.1448 20.1443 24.9709 19.3507 27.207 16.7084C29.2698 14.2708 30.1401 8.34162 25.8142 4.41172C20.209 -0.680449 11.2472 0.280726 5.94998 4.96162C0.652749 9.64251 -1.17446 20.1224 4.39203 26.4434C9.95853 32.7645 24.8036 33.3636 29 22.7418" stroke="#7C7C7C" stroke-width="1.5" stroke-linecap="round" stroke-linejoin="round"/>
</svg>
